<svg xmlns="http://www.w3.org/2000/svg" viewBox="0 0 50 50"><defs><style>.cls-1,.cls-3{fill:#e6dade;}.cls-2,.cls-4{fill:#fff;}.cls-3,.cls-4{font-size:17.89px;letter-spacing:-0.1em;}.cls-3{stroke:#e6dade;stroke-miterlimit:10;stroke-width:1.5px;}</style></defs><title>Asset 1</title><g id="Layer_2" data-name="Layer 2"><g id="レイヤー_1" data-name="レイヤー 1"><circle class="cls-1" cx="25" cy="25" r="25"/><path class="cls-2" d="M24.94,23.5a9.3,9.3,0,1,0-9.3-9.29A9.29,9.29,0,0,0,24.94,23.5Zm6.5,2.32H30.23a12.66,12.66,0,0,1-10.59,0H18.43a9.76,9.76,0,0,0-9.76,9.76v3a3.49,3.49,0,0,0,3.49,3.49H37.71A3.49,3.49,0,0,0,41.2,38.6v-3A9.76,9.76,0,0,0,31.44,25.82Z"/><text class="cls-3" transform="translate(25.23 35.63)">＋</text><text class="cls-4" transform="translate(25.23 35.63)">＋</text></g></g></svg>
