<svg xmlns="http://www.w3.org/2000/svg" viewBox="0 0 20 15.55"><defs><style>.cls-1{fill:#d8cda7;}</style></defs><g id="Layer_2" data-name="Layer 2"><g id="レイヤー_1" data-name="レイヤー 1"><path class="cls-1" d="M9.74,4,3.33,9.31V15a.56.56,0,0,0,.56.55H7.78A.55.55,0,0,0,8.33,15V11.67a.56.56,0,0,1,.56-.56h2.22a.56.56,0,0,1,.56.56V15a.54.54,0,0,0,.55.55h3.89a.56.56,0,0,0,.56-.55V9.3L10.27,4a.41.41,0,0,0-.53,0ZM19.85,7.62,16.94,5.23V.42A.41.41,0,0,0,16.53,0h-2a.41.41,0,0,0-.41.42V2.94L11.06.38a1.66,1.66,0,0,0-2.12,0L.15,7.62a.41.41,0,0,0,0,.59h0L1,9.28a.42.42,0,0,0,.59.06h0L9.74,2.61a.44.44,0,0,1,.53,0l8.16,6.73A.42.42,0,0,0,19,9.28h0l.89-1.07a.43.43,0,0,0-.06-.59Z"/></g></g></svg>