<svg xmlns="http://www.w3.org/2000/svg" viewBox="0 0 15.45 17.65"><defs><style>.cls-1{fill:#d8cda7;}</style></defs><title>Asset 2</title><g id="Layer_2" data-name="Layer 2"><g id="レイヤー_1" data-name="レイヤー 1"><path class="cls-1" d="M14.89,1.1H10.76L10.43.46A.83.83,0,0,0,9.69,0H5.75A.83.83,0,0,0,5,.46l-.32.64H.55A.55.55,0,0,0,0,1.65V2.76a.55.55,0,0,0,.55.55H14.89a.56.56,0,0,0,.56-.55V1.65A.56.56,0,0,0,14.89,1.1ZM1.83,16.1a1.66,1.66,0,0,0,1.66,1.55H12a1.65,1.65,0,0,0,1.65-1.55l.73-11.69H1.1Z"/></g></g></svg>