<svg xmlns="http://www.w3.org/2000/svg" viewBox="0 0 300 300"><defs><style>.cls-1{fill:#fff;}</style></defs><g id="Layer_2" data-name="Layer 2"><g id="レイヤー_1" data-name="レイヤー 1"><path class="cls-1" d="M4,16A12,12,0,0,1,16,4h9V0H16A16,16,0,0,0,0,16v9H4Z"/><path class="cls-1" d="M284,4a12,12,0,0,1,12,12v9h4V16A16,16,0,0,0,284,0h-9V4Z"/><path class="cls-1" d="M296,284a12,12,0,0,1-12,12h-9v4h9a16,16,0,0,0,16-16v-9h-4Z"/><path class="cls-1" d="M16,296A12,12,0,0,1,4,284v-9H0v9a16,16,0,0,0,16,16h9v-4Z"/></g></g></svg>