<svg xmlns="http://www.w3.org/2000/svg" viewBox="0 0 19.25 16"><defs><style>.cls-1{fill:#e6dade;}</style></defs><title>Asset 2</title><g id="Layer_2" data-name="Layer 2"><g id="レイヤー_1" data-name="レイヤー 1"><path class="cls-1" d="M18.81,3.71l-2-3.24A1,1,0,0,0,15.94,0H3.31a1,1,0,0,0-.85.47l-2,3.24A2.79,2.79,0,0,0,2.27,8,3.09,3.09,0,0,0,5,7,3.07,3.07,0,0,0,9.62,7a3.07,3.07,0,0,0,4.61,0,3.11,3.11,0,0,0,2.31,1A3,3,0,0,0,17,8,2.78,2.78,0,0,0,18.81,3.71ZM16.55,9a4.08,4.08,0,0,1-.93-.12V12h-12V8.88A4.07,4.07,0,0,1,2.7,9a3.43,3.43,0,0,1-.56,0,2.71,2.71,0,0,1-.51-.11V15a1,1,0,0,0,1,1h14a1,1,0,0,0,1-1V8.85a3,3,0,0,1-.52.11,3.52,3.52,0,0,1-.56,0Z"/></g></g></svg>