<svg xmlns="http://www.w3.org/2000/svg" xmlns:xlink="http://www.w3.org/1999/xlink" viewBox="0 0 300 301"><defs><style>.cls-1{fill:none;}.cls-2{fill:#fff;}.cls-3{opacity:0.15;}.cls-4{clip-path:url(#clip-path);}</style><clipPath id="clip-path"><rect class="cls-1" y="1" width="300" height="300"/></clipPath></defs><title>Asset 3</title><g id="Layer_2" data-name="Layer 2"><g id="Layer_1-2" data-name="Layer 1"><path class="cls-2" d="M4,16A12,12,0,0,1,16,4h9V0H16A16,16,0,0,0,0,16v9H4Z"/><path class="cls-2" d="M284,4a12,12,0,0,1,12,12v9h4V16A16,16,0,0,0,284,0h-9V4Z"/><path class="cls-2" d="M296,284a12,12,0,0,1-12,12h-9v4h9a16,16,0,0,0,16-16v-9h-4Z"/><path class="cls-2" d="M16,296A12,12,0,0,1,4,284v-9H0v9a16,16,0,0,0,16,16h9v-4Z"/><g class="cls-3"><g class="cls-4"><rect class="cls-2" y="1" width="300" height="300"/></g></g></g></g></svg>