<svg xmlns="http://www.w3.org/2000/svg" viewBox="0 0 20 17.5"><defs><style>.cls-1{fill:#e6dade;}</style></defs><g id="Layer_2" data-name="Layer 2"><g id="レイヤー_1" data-name="レイヤー 1"><path class="cls-1" d="M20,4.38V15.63a1.88,1.88,0,0,1-1.88,1.87H1.87A1.87,1.87,0,0,1,0,15.63V4.38A1.88,1.88,0,0,1,1.87,2.5H5.31l.48-1.29A1.88,1.88,0,0,1,7.55,0h4.9A1.86,1.86,0,0,1,14.2,1.21l.49,1.29h3.43A1.88,1.88,0,0,1,20,4.38ZM14.69,10A4.69,4.69,0,1,0,10,14.69,4.69,4.69,0,0,0,14.69,10Zm-1.25,0A3.44,3.44,0,1,1,10,6.56,3.45,3.45,0,0,1,13.44,10Z"/></g></g></svg>