<svg xmlns="http://www.w3.org/2000/svg" viewBox="0 0 31.66 28.14"><defs><style>.cls-1{fill:#e6dade;}.cls-2{fill:#fff;}</style></defs><g id="Layer_2" data-name="Layer 2"><g id="レイヤー_1" data-name="レイヤー 1"><path class="cls-1" d="M20.79,14.07a6.21,6.21,0,1,0-6.2-6.21A6.21,6.21,0,0,0,20.79,14.07Zm4.35,1.55h-.81a8.4,8.4,0,0,1-7.07,0h-.81a6.52,6.52,0,0,0-6.52,6.52v2a2.33,2.33,0,0,0,2.33,2.33H29.33a2.33,2.33,0,0,0,2.33-2.33v-2A6.52,6.52,0,0,0,25.14,15.62Z"/><path class="cls-1" d="M4,27.31A3.16,3.16,0,0,1,.83,24.15v-2a7.35,7.35,0,0,1,7.34-7.35H9a.85.85,0,0,1,.35.08,7.62,7.62,0,0,0,6.38,0,.77.77,0,0,1,.34-.08h.81a7.36,7.36,0,0,1,7.35,7.35v2a3.17,3.17,0,0,1-3.16,3.16Zm8.54-12.42a7,7,0,1,1,7-7A7,7,0,0,1,12.52,14.89Z"/><path class="cls-2" d="M12.52,1.66a6.21,6.21,0,1,1-6.21,6.2,6.19,6.19,0,0,1,6.21-6.2m4.34,14a6.52,6.52,0,0,1,6.52,6.52v2a2.33,2.33,0,0,1-2.33,2.33H4a2.32,2.32,0,0,1-2.32-2.33v-2a6.51,6.51,0,0,1,6.51-6.52H9a8.4,8.4,0,0,0,7.07,0h.81M12.52,0A7.86,7.86,0,0,0,7.59,14,8.18,8.18,0,0,0,0,22.14v2a4,4,0,0,0,4,4H21.05a4,4,0,0,0,4-4v-2A8.17,8.17,0,0,0,17.44,14,7.86,7.86,0,0,0,12.52,0Z"/></g></g></svg>