<svg xmlns="http://www.w3.org/2000/svg" viewBox="0 0 22.5 20"><defs><style>.cls-1{fill:#d8cda7;}</style></defs><g id="Layer_2" data-name="Layer 2"><g id="レイヤー_1" data-name="レイヤー 1"><path class="cls-1" d="M20.63,11.77l1.85-8.12a1,1,0,0,0-.92-1.15H6.22L5.86.75A.93.93,0,0,0,4.94,0h-4A.94.94,0,0,0,0,.94v.62a.94.94,0,0,0,.94.94H3.67L6.41,15.92A2.19,2.19,0,1,0,9,16.25h8.19a2.17,2.17,0,0,0-.66,1.56,2.19,2.19,0,1,0,3.14-2l.22-.94A.94.94,0,0,0,19,13.75H8.52L8.27,12.5H19.72A.94.94,0,0,0,20.63,11.77Z"/></g></g></svg>