<svg xmlns="http://www.w3.org/2000/svg" viewBox="0 0 26 26"><defs><style>.cls-1{fill:#d8cda7;}</style></defs><g id="Layer_2" data-name="Layer 2"><g id="レイヤー_1" data-name="レイヤー 1"><path class="cls-1" d="M13,0A13,13,0,1,0,26,13,13,13,0,0,0,13,0Zm7.41,20.41A10.48,10.48,0,1,1,5.59,5.59,10.48,10.48,0,1,1,20.41,20.41ZM17.19,8.18c-1.34,0-2.93.88-3.14,2.2a.63.63,0,0,0,1,.57l.5-.44a2.7,2.7,0,0,1,3.2,0l.5.44a.62.62,0,0,0,1-.57c-.2-1.32-1.78-2.2-3.13-2.2ZM8.81,11.32A1.68,1.68,0,1,0,7.13,9.65,1.67,1.67,0,0,0,8.81,11.32ZM19,14.68H7a.69.69,0,0,0-.7.78A6.35,6.35,0,0,0,12.64,21h.72a6.35,6.35,0,0,0,6.34-5.51.69.69,0,0,0-.7-.78Z"/></g></g></svg>